<svg xmlns="http://www.w3.org/2000/svg" width="375" viewBox="0 0 375 375" height="375" version="1.0"><defs><clipPath id="a"><path d="M 69.09375 75.121094 L 306 75.121094 L 306 300 L 69.09375 300 Z M 69.09375 75.121094"/></clipPath></defs><g clip-path="url(#a)"><path fill="#FEBEAC" d="M 122.347656 160.265625 C 120.628906 157.1875 118.453125 154.289062 116.914062 151.117188 C 112.839844 142.875 112.386719 134.542969 115.011719 125.847656 C 117.457031 117.875 120.988281 110.449219 124.25 102.839844 C 127.960938 94.144531 133.125 86.171875 137.289062 77.660156 C 137.742188 76.753906 138.375 76.390625 139.464844 76.117188 C 143.628906 75.121094 147.34375 76.210938 150.875 78.113281 C 151.144531 78.292969 151.328125 78.5625 151.777344 78.292969 C 155.128906 75.9375 158.933594 76.300781 162.644531 77.113281 C 169.710938 78.65625 176.863281 80.105469 183.566406 82.730469 C 186.460938 83.910156 189 85.539062 191.351562 87.714844 C 197.691406 93.601562 203.035156 100.214844 206.566406 108.183594 C 206.835938 108.816406 207.019531 109.453125 207.382812 109.996094 C 207.742188 110.539062 207.472656 111.625 208.285156 111.714844 C 208.921875 111.808594 209.28125 110.902344 209.734375 110.449219 C 212.632812 106.914062 215.984375 103.925781 220.058594 101.84375 C 224.132812 99.761719 228.570312 98.855469 232.917969 97.859375 C 237.898438 96.769531 242.96875 96.136719 248.132812 96.136719 C 252.207031 96.136719 256.101562 97.3125 260.085938 97.585938 C 264.433594 97.859375 268.6875 99.488281 273.214844 98.671875 C 275.660156 98.21875 277.742188 96.953125 280.007812 96.226562 C 284.171875 94.960938 286.347656 95.957031 288.519531 99.761719 C 291.054688 104.199219 291.507812 109.453125 294.226562 113.710938 C 296.941406 117.875 299.023438 122.3125 300.472656 127.023438 C 302.101562 132.460938 302.828125 138.164062 304.09375 143.691406 C 305.273438 149.214844 305.183594 154.832031 305.363281 160.359375 C 305.636719 167.695312 303.550781 174.578125 298.390625 180.195312 C 292.050781 187.078125 283.992188 191.0625 275.117188 193.601562 C 274.753906 193.691406 274.484375 193.871094 274.03125 194.144531 C 276.113281 195.773438 277.652344 197.859375 279.917969 199.214844 C 288.519531 204.289062 292.957031 212.078125 294.585938 221.679688 C 294.769531 222.949219 294.496094 224.398438 295.675781 225.394531 C 295.855469 225.574219 295.945312 226.210938 295.765625 226.570312 C 294.496094 228.925781 295.402344 231.824219 293.953125 234.179688 C 293.683594 234.632812 293.773438 235.175781 293.953125 235.71875 C 294.769531 238.800781 294.316406 239.433594 290.964844 239.433594 C 290.964844 239.34375 290.964844 239.34375 290.875 239.253906 C 290.875 239.253906 290.785156 239.253906 290.785156 239.253906 C 290.875 239.34375 290.875 239.34375 290.964844 239.433594 C 291.054688 240.613281 291.871094 241.515625 292.414062 242.511719 C 294.042969 245.683594 293.953125 248.128906 291.6875 250.664062 C 288.609375 254.015625 285.804688 257.550781 282.273438 260.449219 C 280.097656 262.261719 277.652344 263.800781 275.117188 264.886719 C 271.3125 266.515625 267.964844 268.78125 264.339844 270.773438 C 258.90625 273.761719 253.382812 276.664062 247.136719 277.476562 C 241.972656 278.203125 236.8125 277.113281 231.921875 275.214844 C 228.210938 273.855469 225.039062 271.5 222.050781 269.144531 C 220.691406 268.058594 220.421875 268.601562 219.878906 269.777344 C 217.160156 275.574219 213.539062 280.738281 209.011719 285.175781 C 205.75 288.257812 202.128906 290.882812 197.417969 290.972656 C 196.332031 290.972656 195.878906 291.96875 195.15625 292.605469 C 191.894531 295.414062 188.363281 297.949219 183.835938 297.496094 C 181.753906 297.3125 180.03125 297.585938 178.039062 298.492188 C 174.328125 300.121094 170.523438 298.492188 167.71875 296.136719 C 163.460938 292.605469 158.660156 289.886719 154.40625 286.445312 C 150.78125 283.546875 147.886719 280.105469 144.988281 276.480469 C 142.722656 273.671875 140.367188 270.863281 138.558594 267.695312 C 136.382812 263.980469 135.660156 259.8125 134.484375 255.738281 C 133.757812 253.019531 132.398438 252.566406 129.863281 254.015625 C 128.414062 254.832031 127.058594 255.738281 125.425781 256.371094 C 120.628906 258.363281 115.648438 258.726562 110.574219 258.546875 C 110.214844 258.546875 109.761719 258.363281 109.398438 258.183594 C 102.515625 254.832031 95.632812 251.570312 89.746094 246.679688 C 87.394531 244.777344 84.585938 243.511719 82.230469 241.609375 C 75.894531 236.625 72 230.464844 71.363281 222.222656 C 71.003906 218.058594 71.003906 213.800781 70.097656 209.542969 C 69.554688 207.007812 71.273438 204.289062 73.175781 202.207031 C 75.621094 199.488281 77.703125 196.589844 79.242188 193.238281 C 81.597656 188.074219 83.769531 182.730469 87.03125 178.203125 C 91.46875 172.042969 95.542969 165.25 102.789062 161.535156 C 107.585938 159.089844 112.566406 158.363281 117.820312 159.542969 C 119.179688 159.996094 120.71875 160.359375 122.347656 160.265625 C 122.4375 160.359375 122.4375 160.359375 122.53125 160.449219 C 122.53125 160.449219 122.53125 160.359375 122.53125 160.359375 C 122.4375 160.265625 122.4375 160.265625 122.347656 160.265625 Z M 233.550781 174.488281 C 233.734375 174.308594 233.824219 174.214844 234.003906 174.035156 L 234.1875 173.945312 L 234.367188 174.035156 C 234.636719 173.761719 235.089844 174.125 235.183594 173.582031 C 236.992188 171.769531 239.4375 170.773438 241.25 168.964844 C 242.0625 168.148438 243.332031 167.152344 242.699219 166.0625 C 242.0625 164.886719 241.066406 163.4375 239.257812 163.4375 C 237.988281 163.4375 236.722656 163.347656 235.363281 163.4375 C 231.378906 163.710938 227.304688 166.425781 228.300781 171.5 C 228.300781 171.5 228.210938 171.589844 228.210938 171.589844 C 228.210938 171.589844 228.300781 171.5 228.300781 171.5 C 229.296875 171.5 229.207031 172.3125 229.113281 172.949219 C 227.574219 172.222656 227.664062 174.035156 226.761719 174.488281 C 225.492188 175.03125 223.863281 174.941406 223.046875 176.300781 C 222.050781 178.113281 220.238281 179.109375 219.0625 180.828125 C 218.609375 181.464844 217.976562 182.277344 216.890625 182.007812 C 217.070312 180.375 217.976562 179.015625 218.339844 177.476562 C 218.972656 174.667969 219.515625 171.863281 220.238281 169.054688 C 220.421875 168.328125 221.234375 167.421875 220.421875 166.878906 C 219.515625 166.246094 218.519531 166.96875 217.613281 167.242188 C 217.25 167.421875 216.800781 167.785156 216.527344 168.328125 C 215.804688 169.960938 214.171875 170.320312 212.816406 171.136719 C 212.179688 171.589844 211.636719 171.226562 211.367188 170.59375 C 210.914062 169.324219 212.542969 167.875 211.09375 166.699219 C 211.183594 166.699219 211.183594 166.609375 211.273438 166.609375 C 212.089844 165.882812 212 164.976562 212.089844 163.980469 C 212.179688 162.714844 211.546875 161.355469 211.816406 160.449219 C 212.179688 158.636719 212.089844 156.734375 213.085938 155.011719 C 213.539062 154.289062 213.085938 153.746094 212.8125 153.382812 C 212.453125 152.839844 211.910156 153.382812 211.367188 153.5625 C 210.277344 154.015625 209.191406 154.652344 207.925781 154.015625 C 207.472656 153.835938 206.65625 154.015625 206.65625 154.652344 C 206.65625 156.824219 205.480469 158.636719 205.117188 160.71875 C 204.84375 162.351562 204.664062 164.070312 204.574219 165.703125 C 204.484375 167.332031 202.945312 168.871094 203.941406 170.683594 C 204.121094 171.046875 203.578125 171.589844 203.035156 171.316406 C 203.667969 171.136719 204.394531 171.5 204.574219 171.953125 C 204.753906 172.3125 204.03125 172.675781 203.578125 172.859375 C 203.578125 172.765625 203.578125 172.675781 203.667969 172.585938 C 203.578125 172.585938 203.578125 172.585938 203.488281 172.585938 C 203.578125 172.675781 203.578125 172.765625 203.667969 172.949219 C 203.847656 173.3125 204.394531 173.761719 204.300781 173.945312 C 203.488281 175.664062 204.84375 177.566406 203.578125 179.378906 C 202.945312 178.203125 201.855469 177.113281 201.675781 175.847656 C 200.859375 171.679688 200.953125 167.332031 200.5 163.074219 C 200.226562 160.085938 200.40625 157.097656 199.320312 154.199219 C 199.410156 154.109375 199.503906 154.015625 199.503906 153.925781 C 199.410156 153.925781 199.320312 153.925781 199.230469 153.925781 C 199.230469 154.015625 199.230469 154.109375 199.320312 154.199219 C 197.78125 154.015625 196.421875 155.558594 194.792969 154.832031 C 194.792969 154.199219 195.335938 154.109375 195.699219 153.835938 C 197.691406 152.839844 199.320312 151.300781 201.222656 150.121094 C 202.21875 149.488281 202.308594 148.761719 201.675781 147.765625 C 201.042969 146.679688 200.226562 146.226562 199.050781 146.046875 C 195.609375 145.59375 192.53125 146.769531 189.8125 148.855469 C 188.636719 149.761719 188.90625 151.570312 188.363281 152.839844 C 188.09375 153.5625 190.988281 155.285156 191.804688 155.105469 C 192.4375 154.921875 192.984375 154.832031 193.617188 154.921875 C 194.882812 162.804688 194.703125 170.773438 196.152344 178.65625 C 194.25 176.84375 192.53125 175.121094 190.898438 173.402344 C 189.089844 171.410156 187.1875 169.507812 185.828125 167.332031 C 185.195312 166.246094 184.742188 166.335938 184.015625 166.699219 C 182.839844 167.332031 181.753906 168.148438 180.667969 168.871094 C 180.484375 167.695312 181.390625 167.0625 181.84375 166.246094 C 182.660156 164.796875 183.203125 163.164062 181.933594 161.988281 C 180.757812 160.8125 178.945312 160.539062 177.226562 161.355469 C 174.597656 162.621094 173.511719 164.976562 172.699219 167.695312 C 172.0625 169.777344 173.964844 170.140625 174.691406 171.226562 C 175.234375 172.042969 176.683594 171.589844 177.585938 170.773438 C 178.132812 170.230469 178.492188 169.414062 179.582031 169.6875 C 179.761719 170.230469 179.851562 171.046875 180.214844 171.226562 C 181.574219 171.863281 182.296875 173.128906 183.113281 174.214844 C 184.652344 176.210938 185.828125 178.472656 187.457031 180.464844 C 188.726562 182.007812 189.449219 183.726562 189.992188 185.539062 C 190.175781 185.71875 190.265625 185.8125 190.445312 185.992188 C 190.175781 186.535156 189.8125 186.261719 189.359375 186.171875 C 189.179688 186.082031 188.90625 186.082031 189.179688 185.8125 C 189.269531 186.082031 189.179688 186.171875 188.90625 186.171875 C 184.832031 185.359375 180.847656 184.363281 177.226562 182.277344 C 176.046875 181.644531 175.144531 181.734375 174.238281 183.09375 C 173.058594 184.996094 173.875 188.257812 176.046875 189.164062 C 177.136719 189.523438 178.132812 190.066406 179.035156 190.792969 C 180.125 191.699219 180.304688 192.421875 179.308594 193.417969 C 178.675781 193.964844 178.582031 194.597656 178.765625 195.320312 C 178.582031 195.503906 178.402344 195.59375 178.132812 195.773438 C 176.5 197.496094 173.964844 197.132812 172.0625 198.492188 C 171.25 199.125 170.164062 200.03125 169.074219 200.121094 C 167.082031 200.304688 166.628906 202.839844 164.636719 203.019531 C 164.546875 203.019531 164.277344 205.105469 164.636719 206.011719 C 165 206.914062 165.816406 205.558594 166.539062 205.828125 C 166.902344 206.011719 167.171875 205.375 167.535156 205.285156 C 168.804688 204.832031 170.253906 203.835938 171.160156 206.011719 C 171.609375 207.097656 172.515625 207.640625 174.148438 207.097656 C 179.128906 205.558594 183.925781 203.113281 189.089844 202.023438 C 191.171875 201.570312 193.164062 200.214844 195.246094 200.664062 C 196.785156 201.027344 198.234375 200.9375 199.773438 200.847656 C 201.222656 200.757812 202.582031 200.664062 204.03125 200.574219 C 204.753906 200.484375 205.660156 201.300781 206.113281 200.121094 C 206.476562 199.214844 206.292969 198.3125 205.75 197.496094 C 204.484375 195.683594 204.753906 194.6875 206.929688 194.054688 C 209.644531 193.238281 212.453125 192.511719 215.441406 193.058594 C 215.894531 193.148438 216.707031 193.148438 216.980469 192.875 C 219.695312 189.886719 222.59375 187.078125 224.949219 183.816406 C 225.582031 182.820312 227.03125 182.367188 227.304688 181.191406 C 227.664062 179.921875 228.570312 178.925781 229.386719 178.472656 C 231.199219 177.660156 232.195312 175.847656 233.550781 174.488281 C 233.640625 174.488281 233.550781 174.488281 233.550781 174.488281 Z M 163.824219 180.105469 C 163.734375 181.011719 163.734375 181.914062 164.910156 182.1875 C 165.363281 182.277344 165.632812 182.550781 165.726562 183.003906 C 165.996094 184.363281 166.722656 184 167.71875 183.636719 C 169.980469 182.730469 171.703125 181.101562 173.511719 179.742188 C 175.234375 178.472656 174.691406 176.027344 172.699219 175.03125 C 169.074219 173.21875 164.003906 176.117188 163.824219 180.105469 Z M 163.734375 204.015625 C 163.734375 201.933594 163.640625 201.570312 162.828125 201.390625 C 159.203125 200.664062 154.675781 202.566406 153.769531 206.554688 C 153.5 207.820312 153.679688 209.089844 154.769531 210.085938 C 156.035156 211.171875 157.304688 211.082031 158.570312 210.085938 C 159.566406 209.363281 160.835938 208.726562 161.648438 207.820312 C 162.644531 206.734375 164.183594 205.738281 163.734375 204.015625 Z M 292.867188 181.371094 C 293.863281 181.011719 294.316406 180.738281 294.40625 179.832031 C 293.5 179.921875 293.136719 180.375 292.867188 181.371094 Z M 295.945312 178.292969 C 295.855469 178.382812 295.855469 178.472656 295.765625 178.5625 C 295.765625 178.5625 295.855469 178.65625 295.855469 178.65625 C 295.945312 178.5625 295.945312 178.472656 296.035156 178.382812 C 296.035156 178.382812 295.945312 178.382812 295.945312 178.292969 Z M 291.054688 182.730469 C 291.054688 182.820312 291.144531 182.914062 291.144531 182.820312 C 291.238281 182.820312 291.328125 182.730469 291.417969 182.730469 C 291.417969 182.640625 291.328125 182.550781 291.328125 182.640625 C 291.238281 182.640625 291.144531 182.730469 291.054688 182.730469 Z M 291.054688 182.730469"/></g><path fill="#4C2418" d="M 189.359375 186.261719 C 189.722656 186.355469 190.175781 186.535156 190.445312 186.082031 C 190.628906 185.902344 190.808594 185.71875 190.539062 185.449219 C 190.265625 185.175781 190.085938 185.359375 189.996094 185.628906 C 189.449219 183.816406 188.636719 182.097656 187.457031 180.558594 C 185.917969 178.5625 184.652344 176.300781 183.113281 174.308594 C 182.296875 173.21875 181.574219 171.953125 180.214844 171.316406 C 179.851562 171.136719 179.761719 170.320312 179.582031 169.777344 C 179.582031 169.777344 179.671875 169.6875 179.671875 169.6875 C 180.214844 169.6875 180.484375 169.414062 180.667969 168.964844 C 181.753906 168.238281 182.839844 167.421875 184.015625 166.789062 C 184.652344 166.425781 185.105469 166.335938 185.828125 167.421875 C 187.1875 169.6875 189.179688 171.589844 190.898438 173.492188 C 192.53125 175.304688 194.160156 177.023438 196.152344 178.746094 C 194.703125 170.957031 194.976562 162.894531 193.617188 155.011719 C 193.617188 155.011719 193.796875 155.011719 193.796875 155.011719 L 193.886719 154.921875 C 193.980469 155.011719 194.070312 155.105469 194.25 155.195312 C 194.25 155.105469 194.25 155.011719 194.339844 154.832031 C 194.523438 154.832031 194.613281 154.832031 194.703125 154.742188 C 196.332031 155.375 197.691406 153.925781 199.230469 154.109375 C 200.316406 157.007812 200.046875 159.996094 200.410156 162.984375 C 200.859375 167.242188 200.769531 171.589844 201.585938 175.757812 C 201.855469 177.023438 202.851562 178.113281 203.488281 179.289062 C 204.753906 177.476562 203.398438 175.574219 204.210938 173.855469 C 204.300781 173.671875 203.847656 173.21875 203.578125 172.859375 C 204.121094 172.675781 204.753906 172.3125 204.574219 171.953125 C 204.394531 171.5 203.667969 171.136719 203.035156 171.316406 C 203.667969 171.589844 204.121094 170.957031 203.941406 170.683594 C 202.945312 168.871094 204.394531 167.332031 204.574219 165.703125 C 204.664062 164.070312 204.84375 162.351562 205.117188 160.71875 C 205.480469 158.636719 206.65625 156.824219 206.65625 154.652344 C 206.65625 154.015625 207.472656 153.835938 207.925781 154.015625 C 209.191406 154.652344 210.277344 154.015625 211.367188 153.5625 C 211.820312 153.382812 212.453125 152.839844 212.816406 153.382812 C 213.085938 153.746094 213.449219 154.289062 213.085938 155.015625 C 212.179688 156.644531 212.179688 158.636719 211.820312 160.449219 C 211.636719 161.445312 212.269531 162.714844 212.089844 163.980469 C 212 164.976562 212.089844 165.882812 211.273438 166.609375 C 211.183594 166.609375 211.183594 166.699219 211.09375 166.699219 C 212.542969 167.964844 210.824219 169.324219 211.367188 170.59375 C 211.636719 171.226562 212.179688 171.5 212.816406 171.136719 C 214.171875 170.320312 215.804688 169.960938 216.527344 168.328125 C 216.800781 167.785156 217.25 167.421875 217.613281 167.242188 C 218.519531 166.96875 219.515625 166.246094 220.421875 166.878906 C 221.234375 167.421875 220.421875 168.328125 220.238281 169.054688 C 219.605469 171.863281 219.0625 174.667969 218.339844 177.476562 C 217.976562 179.015625 217.070312 180.375 216.890625 182.007812 C 217.976562 182.1875 218.609375 181.464844 219.0625 180.828125 C 220.238281 179.199219 222.050781 178.113281 223.046875 176.300781 C 223.863281 174.851562 225.582031 175.03125 226.761719 174.488281 C 227.664062 174.035156 227.664062 172.222656 229.113281 172.949219 C 230.292969 174.308594 231.921875 174.488281 233.550781 174.398438 C 232.195312 175.847656 231.199219 177.566406 229.296875 178.65625 C 228.480469 179.109375 227.484375 180.105469 227.214844 181.371094 C 226.941406 182.550781 225.492188 183.003906 224.859375 184 C 222.503906 187.351562 219.605469 190.160156 216.890625 193.058594 C 216.617188 193.328125 215.894531 193.328125 215.351562 193.238281 C 212.363281 192.695312 209.644531 193.417969 206.835938 194.234375 C 204.753906 194.867188 204.484375 195.863281 205.660156 197.675781 C 206.203125 198.492188 206.386719 199.308594 206.023438 200.304688 C 205.570312 201.480469 204.664062 200.757812 203.941406 200.757812 C 202.492188 200.847656 201.132812 200.9375 199.683594 201.027344 C 198.144531 201.117188 196.695312 201.210938 195.15625 200.847656 C 193.074219 200.394531 191.082031 201.753906 189 202.207031 C 183.835938 203.292969 179.128906 205.738281 174.054688 207.277344 C 172.335938 207.820312 171.519531 207.1875 171.066406 206.191406 C 170.164062 204.015625 168.714844 205.015625 167.445312 205.464844 C 167.082031 205.558594 166.8125 206.191406 166.449219 206.011719 C 165.726562 205.738281 164.910156 207.097656 164.546875 206.191406 C 164.183594 205.285156 164.457031 203.203125 164.546875 203.203125 C 166.539062 203.019531 166.992188 200.484375 168.984375 200.304688 C 170.070312 200.214844 171.066406 199.214844 171.972656 198.671875 C 173.875 197.3125 176.410156 197.675781 178.039062 195.957031 C 178.222656 196.046875 178.402344 196.136719 178.492188 196.136719 C 178.765625 196.046875 178.765625 195.773438 178.675781 195.503906 C 178.402344 194.777344 178.585938 194.144531 179.21875 193.601562 C 180.304688 192.605469 180.03125 191.878906 178.945312 190.972656 C 178.039062 190.25 176.953125 189.707031 175.957031 189.34375 C 173.875 188.527344 172.96875 185.265625 174.148438 183.273438 C 175.050781 181.914062 175.957031 181.734375 177.136719 182.460938 C 180.757812 184.453125 184.742188 185.539062 188.816406 186.355469 C 188.816406 186.535156 188.90625 186.714844 189.179688 186.625 C 189.269531 186.535156 189.359375 186.355469 189.359375 186.261719 Z M 211.910156 162.261719 C 212 162.167969 212 162.167969 212.089844 162.167969 C 212 162.167969 211.910156 162.078125 211.816406 162.078125 C 211.816406 162.078125 211.726562 162.167969 211.726562 162.167969 C 211.726562 162.167969 211.816406 162.167969 211.910156 162.261719 Z M 202.945312 179.832031 C 202.945312 179.832031 202.851562 179.921875 202.851562 179.921875 C 202.851562 179.921875 202.945312 180.011719 202.945312 180.011719 C 202.945312 180.011719 203.035156 179.921875 203.035156 179.921875 C 203.035156 179.832031 203.035156 179.832031 202.945312 179.832031 Z M 187.457031 180.285156 C 187.457031 180.375 187.367188 180.375 187.367188 180.464844 C 187.457031 180.648438 187.550781 180.648438 187.640625 180.464844 C 187.640625 180.464844 187.640625 180.375 187.550781 180.285156 C 187.550781 180.285156 187.457031 180.285156 187.457031 180.285156 Z M 187.457031 180.285156"/><path fill="#FEFEFE" d="M 233.640625 174.488281 C 232.011719 174.667969 230.382812 174.398438 229.207031 173.039062 C 229.207031 172.40625 229.386719 171.589844 228.390625 171.589844 C 227.484375 166.609375 231.46875 163.890625 235.453125 163.527344 C 236.722656 163.4375 237.988281 163.527344 239.347656 163.527344 C 241.160156 163.527344 242.15625 164.886719 242.789062 166.15625 C 243.421875 167.152344 242.15625 168.148438 241.339844 169.054688 C 239.527344 170.957031 237.082031 171.863281 235.273438 173.671875 C 235 173.855469 234.730469 173.945312 234.457031 174.125 C 234.457031 174.125 234.277344 174.035156 234.277344 174.035156 C 234.277344 174.035156 234.09375 174.125 234.09375 174.125 C 233.734375 174.125 233.550781 174.214844 233.640625 174.488281 Z M 233.640625 174.488281"/><path fill="#FEFEFE" d="M 194.613281 154.832031 C 194.523438 154.832031 194.339844 154.832031 194.160156 154.921875 C 194.070312 154.921875 193.886719 155.011719 193.796875 155.011719 L 193.707031 155.105469 C 193.707031 155.105469 193.527344 155.105469 193.527344 155.105469 C 192.890625 155.011719 192.347656 155.105469 191.714844 155.285156 C 190.898438 155.464844 188 153.746094 188.273438 153.019531 C 188.726562 151.664062 188.546875 149.941406 189.722656 149.035156 C 192.4375 146.953125 195.425781 145.773438 198.960938 146.226562 C 200.046875 146.410156 200.953125 146.863281 201.585938 147.949219 C 202.128906 148.945312 202.128906 149.667969 201.132812 150.304688 C 199.320312 151.480469 197.601562 153.019531 195.609375 154.015625 C 195.066406 154.109375 194.613281 154.289062 194.613281 154.832031 Z M 194.613281 154.832031"/><path fill="#FEFEFE" d="M 179.582031 169.6875 C 179.582031 169.6875 179.488281 169.777344 179.488281 169.777344 C 178.492188 169.507812 178.132812 170.320312 177.496094 170.863281 C 176.683594 171.679688 175.234375 172.132812 174.597656 171.316406 C 173.875 170.230469 171.972656 169.867188 172.605469 167.785156 C 173.421875 165.066406 174.417969 162.714844 177.136719 161.445312 C 178.855469 160.628906 180.578125 160.902344 181.84375 162.078125 C 183.113281 163.257812 182.570312 164.796875 181.753906 166.335938 C 181.300781 167.152344 180.304688 167.875 180.578125 168.964844 C 179.851562 168.691406 179.582031 168.964844 179.582031 169.6875 Z M 179.582031 169.6875"/><path fill="#FEFEFE" d="M 163.824219 180.105469 C 164.003906 176.117188 169.074219 173.21875 172.699219 175.03125 C 174.691406 176.027344 175.234375 178.472656 173.511719 179.742188 C 171.609375 181.101562 169.890625 182.820312 167.71875 183.636719 C 166.8125 184 166.085938 184.269531 165.726562 183.003906 C 165.632812 182.550781 165.363281 182.277344 164.910156 182.1875 C 163.734375 181.914062 163.824219 181.011719 163.824219 180.105469 Z M 163.824219 180.105469"/><path fill="#FEFEFE" d="M 163.734375 204.015625 C 164.183594 205.738281 162.644531 206.734375 161.648438 207.820312 C 160.835938 208.726562 159.566406 209.363281 158.570312 210.085938 C 157.304688 210.992188 156.035156 211.171875 154.769531 210.085938 C 153.679688 209.179688 153.5 207.914062 153.769531 206.554688 C 154.675781 202.566406 159.203125 200.664062 162.828125 201.390625 C 163.640625 201.570312 163.734375 201.933594 163.734375 204.015625 Z M 163.734375 204.015625"/><path fill="#FEFEFE" d="M 292.867188 181.371094 C 293.136719 180.375 293.5 179.921875 294.40625 179.832031 C 294.316406 180.738281 293.863281 181.101562 292.867188 181.371094 Z M 292.867188 181.371094"/><path fill="#4C2418" d="M 234.367188 174.035156 C 234.636719 173.855469 234.910156 173.761719 235.183594 173.582031 C 235.089844 174.125 234.546875 173.761719 234.367188 174.035156 Z M 234.367188 174.035156"/><path fill="#FEFEFE" d="M 295.945312 178.292969 C 296.035156 178.382812 296.035156 178.382812 296.035156 178.382812 C 296.035156 178.472656 295.945312 178.5625 295.855469 178.65625 C 295.855469 178.65625 295.765625 178.5625 295.765625 178.5625 C 295.765625 178.472656 295.855469 178.382812 295.945312 178.292969 Z M 295.945312 178.292969"/><path fill="#FEFEFE" d="M 291.054688 182.730469 C 291.144531 182.730469 291.238281 182.640625 291.328125 182.640625 C 291.328125 182.640625 291.417969 182.730469 291.417969 182.730469 C 291.328125 182.730469 291.238281 182.820312 291.144531 182.820312 C 291.144531 182.914062 291.054688 182.820312 291.054688 182.730469 Z M 291.054688 182.730469"/><path fill="#4C2418" d="M 188.90625 186.261719 C 189.089844 186.261719 189.269531 186.082031 189.179688 185.902344 C 188.90625 186.171875 189.179688 186.171875 189.359375 186.261719 C 189.179688 186.082031 189.089844 186.082031 188.90625 186.261719 Z M 188.90625 186.261719"/><path fill="#4C2418" d="M 199.140625 154.199219 C 199.140625 154.109375 199.140625 154.015625 199.050781 153.925781 C 199.140625 153.925781 199.230469 153.925781 199.320312 153.925781 C 199.230469 154.015625 199.140625 154.109375 199.140625 154.199219 C 199.050781 154.199219 199.140625 154.199219 199.140625 154.199219 Z M 199.140625 154.199219"/><path fill="#FEFEFE" d="M 122.347656 160.265625 C 122.4375 160.265625 122.4375 160.265625 122.53125 160.359375 C 122.53125 160.359375 122.53125 160.449219 122.53125 160.449219 C 122.4375 160.359375 122.4375 160.265625 122.347656 160.265625 Z M 122.347656 160.265625"/><path fill="#FEFEFE" d="M 228.300781 171.589844 C 228.300781 171.589844 228.210938 171.679688 228.210938 171.679688 C 228.300781 171.679688 228.300781 171.679688 228.300781 171.589844 Z M 228.300781 171.589844"/><path fill="#4C2418" d="M 203.488281 172.859375 C 203.398438 172.765625 203.398438 172.675781 203.304688 172.496094 C 203.398438 172.496094 203.398438 172.496094 203.488281 172.496094 C 203.488281 172.675781 203.488281 172.765625 203.488281 172.859375 C 203.488281 172.949219 203.488281 172.859375 203.488281 172.859375 Z M 203.488281 172.859375"/><path fill="#4C2418" d="M 233.550781 174.488281 C 233.550781 174.214844 233.734375 174.125 234.003906 174.035156 C 233.824219 174.214844 233.734375 174.308594 233.550781 174.488281 Z M 233.550781 174.488281"/><path fill="#FEFEFE" d="M 290.875 239.433594 C 290.785156 239.34375 290.785156 239.34375 290.691406 239.253906 C 290.691406 239.253906 290.785156 239.253906 290.785156 239.253906 C 290.785156 239.34375 290.785156 239.34375 290.875 239.433594 Z M 290.875 239.433594"/><path fill="#FEBEAC" d="M 179.582031 169.6875 C 179.582031 169.054688 179.851562 168.691406 180.578125 168.964844 C 180.394531 169.414062 180.125 169.6875 179.582031 169.6875 Z M 179.582031 169.6875"/><path fill="#FEBEAC" d="M 193.796875 155.011719 C 193.886719 155.011719 194.070312 154.921875 194.160156 154.921875 C 194.160156 155.011719 194.160156 155.105469 194.070312 155.285156 C 193.980469 155.195312 193.886719 155.105469 193.796875 155.011719 Z M 193.796875 155.011719"/><path fill="#FEBEAC" d="M 211.910156 162.261719 C 211.816406 162.261719 211.726562 162.167969 211.636719 162.078125 C 211.636719 162.078125 211.726562 161.988281 211.726562 161.988281 C 211.816406 161.988281 211.910156 162.078125 212 162.078125 C 212 162.167969 212 162.167969 211.910156 162.261719 Z M 211.910156 162.261719"/><path fill="#FEBEAC" d="M 202.945312 179.832031 C 202.945312 179.832031 203.035156 179.921875 203.035156 179.921875 C 203.035156 179.921875 202.945312 180.011719 202.945312 180.011719 C 202.945312 180.011719 202.851562 179.921875 202.851562 179.921875 C 202.851562 179.832031 202.945312 179.832031 202.945312 179.832031 Z M 202.945312 179.832031"/><path fill="#FEBEAC" d="M 187.457031 180.285156 C 187.550781 180.285156 187.550781 180.285156 187.640625 180.285156 C 187.640625 180.285156 187.730469 180.375 187.730469 180.464844 C 187.640625 180.648438 187.550781 180.648438 187.457031 180.464844 C 187.367188 180.375 187.367188 180.285156 187.457031 180.285156 Z M 187.457031 180.285156"/><path fill="#FEBEAC" d="M 189.902344 185.539062 C 190.085938 185.265625 190.265625 185.175781 190.445312 185.359375 C 190.71875 185.628906 190.539062 185.8125 190.355469 185.992188 C 190.265625 185.902344 190.085938 185.71875 189.902344 185.539062 Z M 189.902344 185.539062"/><path fill="#FEBEAC" d="M 188.90625 186.261719 C 189.089844 186.082031 189.179688 186.082031 189.359375 186.261719 C 189.359375 186.355469 189.269531 186.535156 189.269531 186.535156 C 189 186.625 188.90625 186.445312 188.90625 186.261719 Z M 188.90625 186.261719"/><path fill="#FEBEAC" d="M 178.765625 195.414062 C 178.855469 195.683594 178.855469 195.863281 178.585938 196.046875 C 178.492188 196.046875 178.3125 195.957031 178.132812 195.863281 C 178.402344 195.683594 178.585938 195.59375 178.765625 195.414062 Z M 178.765625 195.414062"/></svg>